<mxfile host="app.diagrams.net" modified="2023-11-18T16:15:23.442Z" agent="Mozilla/5.0 (Macintosh; Intel Mac OS X 10_15_7) AppleWebKit/537.36 (KHTML, like Gecko) Chrome/119.0.0.0 Safari/537.36" etag="3cf4bOAgTij7JONWPAhV" version="22.1.3" type="device">
  <diagram name="Page-1" id="dOEHfyz_rYOiCJrxWA6p">
    <mxGraphModel dx="1266" dy="1856" grid="1" gridSize="10" guides="1" tooltips="1" connect="1" arrows="1" fold="1" page="1" pageScale="1" pageWidth="827" pageHeight="1169" math="0" shadow="0">
      <root>
        <mxCell id="0" />
        <mxCell id="1" parent="0" />
        <mxCell id="noacOXJ1vYzcYbnuEMSz-11" style="edgeStyle=orthogonalEdgeStyle;rounded=0;orthogonalLoop=1;jettySize=auto;html=1;entryX=0;entryY=0.5;entryDx=0;entryDy=0;" edge="1" parent="1" source="noacOXJ1vYzcYbnuEMSz-2" target="noacOXJ1vYzcYbnuEMSz-14">
          <mxGeometry relative="1" as="geometry">
            <mxPoint x="510" y="80" as="targetPoint" />
          </mxGeometry>
        </mxCell>
        <mxCell id="noacOXJ1vYzcYbnuEMSz-12" style="edgeStyle=orthogonalEdgeStyle;rounded=0;orthogonalLoop=1;jettySize=auto;html=1;entryX=0;entryY=0.5;entryDx=0;entryDy=0;" edge="1" parent="1" source="noacOXJ1vYzcYbnuEMSz-2" target="noacOXJ1vYzcYbnuEMSz-4">
          <mxGeometry relative="1" as="geometry" />
        </mxCell>
        <mxCell id="noacOXJ1vYzcYbnuEMSz-2" value="Client" style="swimlane;whiteSpace=wrap;html=1;" vertex="1" parent="1">
          <mxGeometry x="100" y="70" width="200" height="200" as="geometry" />
        </mxCell>
        <mxCell id="noacOXJ1vYzcYbnuEMSz-4" value="Vehicle&lt;br&gt;&amp;lt;&amp;lt;Interface&amp;gt;&amp;gt;" style="rounded=0;whiteSpace=wrap;html=1;" vertex="1" parent="1">
          <mxGeometry x="510" y="190" width="120" height="60" as="geometry" />
        </mxCell>
        <mxCell id="noacOXJ1vYzcYbnuEMSz-7" style="edgeStyle=orthogonalEdgeStyle;rounded=0;orthogonalLoop=1;jettySize=auto;html=1;entryX=0.25;entryY=1;entryDx=0;entryDy=0;" edge="1" parent="1" source="noacOXJ1vYzcYbnuEMSz-5" target="noacOXJ1vYzcYbnuEMSz-4">
          <mxGeometry relative="1" as="geometry" />
        </mxCell>
        <mxCell id="noacOXJ1vYzcYbnuEMSz-5" value="Car" style="swimlane;whiteSpace=wrap;html=1;" vertex="1" parent="1">
          <mxGeometry x="340" y="330" width="200" height="200" as="geometry" />
        </mxCell>
        <mxCell id="noacOXJ1vYzcYbnuEMSz-8" style="edgeStyle=orthogonalEdgeStyle;rounded=0;orthogonalLoop=1;jettySize=auto;html=1;entryX=0.75;entryY=1;entryDx=0;entryDy=0;" edge="1" parent="1" source="noacOXJ1vYzcYbnuEMSz-6" target="noacOXJ1vYzcYbnuEMSz-4">
          <mxGeometry relative="1" as="geometry" />
        </mxCell>
        <mxCell id="noacOXJ1vYzcYbnuEMSz-6" value="Bike" style="swimlane;whiteSpace=wrap;html=1;" vertex="1" parent="1">
          <mxGeometry x="590" y="330" width="200" height="200" as="geometry" />
        </mxCell>
        <mxCell id="noacOXJ1vYzcYbnuEMSz-9" value="is-a" style="text;html=1;strokeColor=none;fillColor=none;align=center;verticalAlign=middle;whiteSpace=wrap;rounded=0;" vertex="1" parent="1">
          <mxGeometry x="430" y="260" width="60" height="30" as="geometry" />
        </mxCell>
        <mxCell id="noacOXJ1vYzcYbnuEMSz-10" value="is-a" style="text;html=1;strokeColor=none;fillColor=none;align=center;verticalAlign=middle;whiteSpace=wrap;rounded=0;" vertex="1" parent="1">
          <mxGeometry x="640" y="260" width="60" height="30" as="geometry" />
        </mxCell>
        <mxCell id="noacOXJ1vYzcYbnuEMSz-13" value="has-a" style="text;html=1;strokeColor=none;fillColor=none;align=center;verticalAlign=middle;whiteSpace=wrap;rounded=0;" vertex="1" parent="1">
          <mxGeometry x="320" y="140" width="60" height="30" as="geometry" />
        </mxCell>
        <mxCell id="noacOXJ1vYzcYbnuEMSz-14" value="Factory" style="swimlane;whiteSpace=wrap;html=1;" vertex="1" parent="1">
          <mxGeometry x="510" y="-40" width="200" height="200" as="geometry" />
        </mxCell>
      </root>
    </mxGraphModel>
  </diagram>
</mxfile>
